<svg width="114" height="16" viewBox="0 0 114 16" fill="none" xmlns="http://www.w3.org/2000/svg">
<path d="M1.3113e-06 1.2C0.266668 1.21067 0.624001 1.22133 1.072 1.232C1.53067 1.24267 1.984 1.248 2.432 1.248C2.944 1.248 3.44 1.24267 3.92 1.232C4.4 1.22133 4.74133 1.216 4.944 1.216C6.42667 1.216 7.536 1.50933 8.272 2.096C9.008 2.68267 9.376 3.44 9.376 4.368C9.376 4.752 9.30133 5.15733 9.152 5.584C9.00267 6 8.74667 6.38933 8.384 6.752C8.032 7.104 7.54667 7.392 6.928 7.616C6.30933 7.84 5.53067 7.952 4.592 7.952H2.96V7.632H4.432C5.06133 7.632 5.536 7.488 5.856 7.2C6.18667 6.912 6.41067 6.53333 6.528 6.064C6.656 5.59467 6.72 5.088 6.72 4.544C6.72 3.53067 6.57067 2.77333 6.272 2.272C5.97334 1.77067 5.46134 1.52 4.736 1.52C4.32 1.52 4.048 1.61067 3.92 1.792C3.80267 1.97333 3.744 2.34133 3.744 2.896V10.736C3.744 11.152 3.78667 11.4613 3.872 11.664C3.95733 11.8667 4.12267 12 4.368 12.064C4.61333 12.128 4.976 12.1653 5.456 12.176V12.528C5.12533 12.5173 4.69867 12.5067 4.176 12.496C3.65333 12.4853 3.104 12.48 2.528 12.48C2.06933 12.48 1.62133 12.4853 1.184 12.496C0.746668 12.5067 0.352001 12.5173 1.3113e-06 12.528V12.208C0.341335 12.1867 0.597335 12.144 0.768001 12.08C0.938668 12.016 1.05067 11.888 1.104 11.696C1.168 11.504 1.2 11.216 1.2 10.832V2.896C1.2 2.50133 1.168 2.21333 1.104 2.032C1.05067 1.84 0.933335 1.712 0.752001 1.648C0.581335 1.57333 0.330668 1.53067 1.3113e-06 1.52V1.2ZM13.1174 4.032C13.5654 4.032 13.9547 4.09067 14.2854 4.208C14.6267 4.31467 14.872 4.42133 15.0214 4.528C15.384 4.77333 15.608 4.61333 15.6934 4.048H16.0294C16.008 4.34667 15.992 4.71467 15.9814 5.152C15.9707 5.57867 15.9654 6.14933 15.9654 6.864H15.6294C15.576 6.46933 15.4747 6.08 15.3254 5.696C15.176 5.312 14.9574 4.99733 14.6694 4.752C14.392 4.50667 14.0294 4.384 13.5814 4.384C13.272 4.384 13.0107 4.47467 12.7974 4.656C12.584 4.82667 12.4774 5.07733 12.4774 5.408C12.4774 5.728 12.5734 6.01067 12.7654 6.256C12.9574 6.49067 13.2027 6.72 13.5014 6.944C13.8107 7.15733 14.1307 7.38667 14.4614 7.632C14.8134 7.89867 15.1334 8.16533 15.4214 8.432C15.7094 8.688 15.9387 8.97067 16.1094 9.28C16.28 9.58933 16.3654 9.95733 16.3654 10.384C16.3654 10.864 16.2267 11.2853 15.9494 11.648C15.672 12 15.304 12.272 14.8454 12.464C14.3974 12.656 13.896 12.752 13.3414 12.752C13.0214 12.752 12.7334 12.72 12.4774 12.656C12.232 12.592 12.0187 12.512 11.8374 12.416C11.6987 12.352 11.5654 12.2933 11.4374 12.24C11.32 12.176 11.208 12.1227 11.1014 12.08C10.9947 12.048 10.8987 12.0853 10.8134 12.192C10.7387 12.2987 10.68 12.448 10.6374 12.64H10.3014C10.3227 12.2987 10.3387 11.8827 10.3494 11.392C10.36 10.9013 10.3654 10.2507 10.3654 9.44H10.7014C10.7654 10.016 10.8827 10.528 11.0534 10.976C11.224 11.4133 11.4534 11.76 11.7414 12.016C12.04 12.2613 12.4134 12.384 12.8614 12.384C13.0427 12.384 13.2187 12.3467 13.3894 12.272C13.56 12.1973 13.6987 12.0747 13.8054 11.904C13.9227 11.7333 13.9814 11.5147 13.9814 11.248C13.9814 10.7787 13.8267 10.3893 13.5174 10.08C13.2187 9.77067 12.8347 9.43467 12.3654 9.072C12.024 8.79467 11.6987 8.52267 11.3894 8.256C11.0907 7.97867 10.8454 7.68 10.6534 7.36C10.4614 7.02933 10.3654 6.656 10.3654 6.24C10.3654 5.76 10.4934 5.35467 10.7494 5.024C11.0054 4.69333 11.3414 4.448 11.7574 4.288C12.184 4.11733 12.6374 4.032 13.1174 4.032ZM25.164 4.256V4.576C24.9613 4.62933 24.7693 4.75733 24.588 4.96C24.4067 5.152 24.2307 5.48267 24.06 5.952L21.804 12.288L21.212 13.408L17.724 5.488C17.5427 5.072 17.3613 4.82133 17.18 4.736C17.0093 4.64 16.86 4.592 16.732 4.592V4.256C17.084 4.288 17.4467 4.31467 17.82 4.336C18.204 4.34667 18.572 4.352 18.924 4.352C19.3613 4.352 19.7613 4.34133 20.124 4.32C20.4867 4.29867 20.828 4.27733 21.148 4.256V4.592C20.9347 4.592 20.732 4.608 20.54 4.64C20.3587 4.66133 20.2307 4.736 20.156 4.864C20.092 4.98133 20.124 5.18933 20.252 5.488L22.268 10.352L22.124 10.448L23.308 7.136C23.5107 6.56 23.596 6.09067 23.564 5.728C23.532 5.35467 23.4147 5.07733 23.212 4.896C23.0093 4.704 22.732 4.59733 22.38 4.576V4.256C22.5507 4.26667 22.7267 4.27733 22.908 4.288C23.0893 4.288 23.2707 4.29333 23.452 4.304C23.6333 4.304 23.7933 4.304 23.932 4.304C24.1453 4.304 24.3693 4.29867 24.604 4.288C24.8387 4.27733 25.0253 4.26667 25.164 4.256ZM21.804 12.288L21.196 14C21.0893 14.2667 20.9773 14.4907 20.86 14.672C20.7533 14.864 20.6307 15.0187 20.492 15.136C20.3427 15.264 20.1507 15.36 19.916 15.424C19.6813 15.4987 19.4093 15.536 19.1 15.536C18.844 15.536 18.5773 15.4933 18.3 15.408C18.0333 15.3227 17.8093 15.184 17.628 14.992C17.4467 14.8 17.356 14.5547 17.356 14.256C17.356 13.9253 17.4733 13.6587 17.708 13.456C17.9427 13.264 18.252 13.168 18.636 13.168C18.988 13.168 19.276 13.2533 19.5 13.424C19.724 13.5947 19.836 13.8453 19.836 14.176C19.836 14.3893 19.7667 14.592 19.628 14.784C19.5 14.976 19.3027 15.12 19.036 15.216C19.0893 15.2267 19.1533 15.232 19.228 15.232C19.3027 15.232 19.3613 15.232 19.404 15.232C19.724 15.232 20.0067 15.1307 20.252 14.928C20.4973 14.7253 20.7 14.4053 20.86 13.968L21.42 12.32L21.804 12.288ZM29.5625 4.032C29.9785 4.032 30.3572 4.08 30.6985 4.176C31.0505 4.26133 31.3385 4.37333 31.5625 4.512C31.8398 4.68267 32.0532 4.896 32.2025 5.152C32.3625 5.39733 32.4425 5.68533 32.4425 6.016C32.4425 6.38933 32.3252 6.69867 32.0905 6.944C31.8558 7.17867 31.5518 7.296 31.1785 7.296C30.8052 7.296 30.5065 7.18933 30.2825 6.976C30.0585 6.76267 29.9465 6.47467 29.9465 6.112C29.9465 5.77067 30.0532 5.488 30.2665 5.264C30.4798 5.02933 30.7252 4.87467 31.0025 4.8C30.9172 4.69333 30.7892 4.60267 30.6185 4.528C30.4478 4.45333 30.2558 4.416 30.0425 4.416C29.7118 4.416 29.4185 4.512 29.1625 4.704C28.9172 4.896 28.7092 5.16267 28.5385 5.504C28.3678 5.84533 28.2345 6.24533 28.1385 6.704C28.0532 7.16267 28.0105 7.664 28.0105 8.208C28.0105 9.02933 28.1118 9.67467 28.3145 10.144C28.5278 10.6133 28.7945 10.944 29.1145 11.136C29.4452 11.328 29.7865 11.424 30.1385 11.424C30.3412 11.424 30.5598 11.392 30.7945 11.328C31.0398 11.264 31.2852 11.136 31.5305 10.944C31.7865 10.752 32.0212 10.48 32.2345 10.128L32.5065 10.224C32.3892 10.6187 32.1972 11.0133 31.9305 11.408C31.6638 11.8027 31.3172 12.128 30.8905 12.384C30.4638 12.6293 29.9412 12.752 29.3225 12.752C28.6292 12.752 27.9998 12.6027 27.4345 12.304C26.8798 11.9947 26.4318 11.5253 26.0905 10.896C25.7598 10.256 25.5945 9.43467 25.5945 8.432C25.5945 7.472 25.7652 6.66667 26.1065 6.016C26.4585 5.35467 26.9332 4.85867 27.5305 4.528C28.1278 4.19733 28.8052 4.032 29.5625 4.032ZM36.588 0.0159998V5.52C36.8547 4.96533 37.212 4.58133 37.66 4.368C38.1187 4.144 38.6307 4.032 39.196 4.032C39.6547 4.032 40.0227 4.09067 40.3 4.208C40.5773 4.31467 40.796 4.464 40.956 4.656C41.1373 4.85867 41.2653 5.12 41.34 5.44C41.4253 5.76 41.468 6.192 41.468 6.736V11.04C41.468 11.488 41.5427 11.792 41.692 11.952C41.852 12.112 42.1187 12.192 42.492 12.192V12.528C42.2893 12.5173 41.98 12.5067 41.564 12.496C41.1587 12.4747 40.764 12.464 40.38 12.464C39.964 12.464 39.5587 12.4747 39.164 12.496C38.78 12.5067 38.492 12.5173 38.3 12.528V12.192C38.62 12.192 38.844 12.112 38.972 11.952C39.1 11.792 39.164 11.488 39.164 11.04V6.064C39.164 5.79733 39.1373 5.568 39.084 5.376C39.0307 5.17333 38.9293 5.01867 38.78 4.912C38.6413 4.79467 38.4387 4.736 38.172 4.736C37.884 4.736 37.6173 4.816 37.372 4.976C37.1373 5.12533 36.9453 5.33867 36.796 5.616C36.6573 5.89333 36.588 6.21333 36.588 6.576V11.04C36.588 11.488 36.652 11.792 36.78 11.952C36.908 12.112 37.132 12.192 37.452 12.192V12.528C37.26 12.5173 36.9773 12.5067 36.604 12.496C36.2307 12.4747 35.852 12.464 35.468 12.464C35.052 12.464 34.6307 12.4747 34.204 12.496C33.788 12.5067 33.4733 12.5173 33.26 12.528V12.192C33.6333 12.192 33.8947 12.112 34.044 11.952C34.204 11.792 34.284 11.488 34.284 11.04V1.936C34.284 1.456 34.2093 1.104 34.06 0.88C33.9213 0.645333 33.6547 0.528 33.26 0.528V0.192C33.6013 0.224001 33.932 0.240001 34.252 0.240001C34.6893 0.240001 35.1053 0.224001 35.5 0.192C35.8947 0.149334 36.2573 0.0906668 36.588 0.0159998ZM47.2024 4.032C47.981 4.032 48.6637 4.176 49.2504 4.464C49.837 4.752 50.2957 5.216 50.6264 5.856C50.957 6.496 51.1224 7.344 51.1224 8.4C51.1224 9.456 50.957 10.304 50.6264 10.944C50.2957 11.5733 49.837 12.032 49.2504 12.32C48.6637 12.608 47.981 12.752 47.2024 12.752C46.445 12.752 45.7677 12.608 45.1704 12.32C44.5837 12.032 44.1197 11.5733 43.7784 10.944C43.4477 10.304 43.2824 9.456 43.2824 8.4C43.2824 7.344 43.4477 6.496 43.7784 5.856C44.1197 5.216 44.5837 4.752 45.1704 4.464C45.7677 4.176 46.445 4.032 47.2024 4.032ZM47.2024 4.352C46.7757 4.352 46.4184 4.672 46.1304 5.312C45.8424 5.94133 45.6984 6.97067 45.6984 8.4C45.6984 9.82933 45.8424 10.8587 46.1304 11.488C46.4184 12.1173 46.7757 12.432 47.2024 12.432C47.6397 12.432 47.997 12.1173 48.2744 11.488C48.5624 10.8587 48.7064 9.82933 48.7064 8.4C48.7064 6.97067 48.5624 5.94133 48.2744 5.312C47.997 4.672 47.6397 4.352 47.2024 4.352ZM55.229 0V11.04C55.229 11.488 55.3037 11.792 55.453 11.952C55.613 12.112 55.8797 12.192 56.253 12.192V12.528C56.0503 12.5173 55.7463 12.5067 55.341 12.496C54.9357 12.4747 54.525 12.464 54.109 12.464C53.693 12.464 53.2717 12.4747 52.845 12.496C52.429 12.5067 52.1143 12.5173 51.901 12.528V12.192C52.2743 12.192 52.5357 12.112 52.685 11.952C52.845 11.792 52.925 11.488 52.925 11.04V1.92C52.925 1.44 52.8503 1.088 52.701 0.864C52.5623 0.629333 52.2957 0.512 51.901 0.512V0.176001C52.2423 0.208 52.573 0.224 52.893 0.224C53.3303 0.224 53.7463 0.208 54.141 0.176001C54.5357 0.133334 54.8983 0.074667 55.229 0ZM60.9055 4.032C61.6842 4.032 62.3668 4.176 62.9535 4.464C63.5402 4.752 63.9988 5.216 64.3295 5.856C64.6602 6.496 64.8255 7.344 64.8255 8.4C64.8255 9.456 64.6602 10.304 64.3295 10.944C63.9988 11.5733 63.5402 12.032 62.9535 12.32C62.3668 12.608 61.6842 12.752 60.9055 12.752C60.1482 12.752 59.4708 12.608 58.8735 12.32C58.2868 12.032 57.8228 11.5733 57.4815 10.944C57.1508 10.304 56.9855 9.456 56.9855 8.4C56.9855 7.344 57.1508 6.496 57.4815 5.856C57.8228 5.216 58.2868 4.752 58.8735 4.464C59.4708 4.176 60.1482 4.032 60.9055 4.032ZM60.9055 4.352C60.4788 4.352 60.1215 4.672 59.8335 5.312C59.5455 5.94133 59.4015 6.97067 59.4015 8.4C59.4015 9.82933 59.5455 10.8587 59.8335 11.488C60.1215 12.1173 60.4788 12.432 60.9055 12.432C61.3428 12.432 61.7002 12.1173 61.9775 11.488C62.2655 10.8587 62.4095 9.82933 62.4095 8.4C62.4095 6.97067 62.2655 5.94133 61.9775 5.312C61.7002 4.672 61.3428 4.352 60.9055 4.352ZM68.9284 15.536C68.267 15.536 67.675 15.4773 67.1524 15.36C66.6404 15.2533 66.235 15.0827 65.9364 14.848C65.6484 14.624 65.5044 14.3467 65.5044 14.016C65.5044 13.6853 65.6537 13.3867 65.9524 13.12C66.251 12.864 66.6937 12.6613 67.2804 12.512L67.4244 12.768C67.2217 12.928 67.0724 13.0987 66.9764 13.28C66.891 13.472 66.8484 13.6693 66.8484 13.872C66.8484 14.32 67.051 14.6613 67.4564 14.896C67.8724 15.1413 68.4324 15.264 69.1364 15.264C69.6164 15.264 70.043 15.2 70.4164 15.072C70.8004 14.944 71.099 14.752 71.3124 14.496C71.5364 14.24 71.6484 13.9253 71.6484 13.552C71.6484 13.232 71.531 12.96 71.2964 12.736C71.0617 12.5227 70.5924 12.416 69.8884 12.416H68.8964C68.459 12.416 68.075 12.368 67.7444 12.272C67.4244 12.176 67.1737 12.0267 66.9924 11.824C66.811 11.6107 66.7204 11.344 66.7204 11.024C66.7204 10.576 66.8964 10.1813 67.2484 9.84C67.6004 9.49867 68.123 9.17867 68.8164 8.88L68.9764 9.008C68.7737 9.136 68.5817 9.27467 68.4004 9.424C68.2297 9.56267 68.1444 9.744 68.1444 9.968C68.1444 10.3093 68.3577 10.48 68.7844 10.48H70.5284C71.115 10.48 71.6377 10.5493 72.0964 10.688C72.5657 10.8267 72.9337 11.056 73.2004 11.376C73.4777 11.6853 73.6164 12.0907 73.6164 12.592C73.6164 13.1147 73.4457 13.6 73.1044 14.048C72.7737 14.496 72.2617 14.8533 71.5684 15.12C70.875 15.3973 69.995 15.536 68.9284 15.536ZM69.0884 9.12C68.4804 9.12 67.9364 9.02933 67.4564 8.848C66.9764 8.66667 66.5977 8.38933 66.3204 8.016C66.043 7.64267 65.9044 7.16267 65.9044 6.576C65.9044 5.98933 66.043 5.50933 66.3204 5.136C66.5977 4.752 66.9764 4.47467 67.4564 4.304C67.9364 4.12267 68.4804 4.032 69.0884 4.032C69.6964 4.032 70.2404 4.12267 70.7204 4.304C71.2004 4.47467 71.579 4.752 71.8564 5.136C72.1337 5.50933 72.2724 5.98933 72.2724 6.576C72.2724 7.16267 72.1337 7.64267 71.8564 8.016C71.579 8.38933 71.2004 8.66667 70.7204 8.848C70.2404 9.02933 69.6964 9.12 69.0884 9.12ZM69.0884 8.832C69.3764 8.832 69.6004 8.672 69.7604 8.352C69.9204 8.02133 70.0004 7.42933 70.0004 6.576C70.0004 5.72267 69.9204 5.136 69.7604 4.816C69.6004 4.48533 69.3764 4.32 69.0884 4.32C68.811 4.32 68.587 4.48533 68.4164 4.816C68.2564 5.136 68.1764 5.72267 68.1764 6.576C68.1764 7.42933 68.2564 8.02133 68.4164 8.352C68.587 8.672 68.811 8.832 69.0884 8.832ZM71.5844 5.408L71.2644 5.296C71.4244 4.88 71.6804 4.53333 72.0324 4.256C72.395 3.97867 72.7844 3.84 73.2004 3.84C73.5417 3.84 73.7977 3.936 73.9684 4.128C74.1497 4.30933 74.2404 4.54933 74.2404 4.848C74.2404 5.168 74.155 5.408 73.9844 5.568C73.8137 5.71733 73.6217 5.792 73.4084 5.792C73.227 5.792 73.0564 5.728 72.8964 5.6C72.747 5.472 72.6617 5.28 72.6404 5.024C72.619 4.75733 72.7097 4.416 72.9124 4L73.0244 4.096C72.619 4.24533 72.315 4.42133 72.1124 4.624C71.9097 4.816 71.7337 5.07733 71.5844 5.408ZM76.7481 0.128C77.1961 0.128 77.5481 0.24 77.8041 0.464001C78.0708 0.677334 78.2041 0.976 78.2041 1.36C78.2041 1.744 78.0708 2.048 77.8041 2.272C77.5481 2.48533 77.1961 2.592 76.7481 2.592C76.3001 2.592 75.9428 2.48533 75.6761 2.272C75.4201 2.048 75.2921 1.744 75.2921 1.36C75.2921 0.976 75.4201 0.677334 75.6761 0.464001C75.9428 0.24 76.3001 0.128 76.7481 0.128ZM77.9961 4.08V11.04C77.9961 11.488 78.0708 11.792 78.2201 11.952C78.3801 12.112 78.6468 12.192 79.0201 12.192V12.528C78.8281 12.5173 78.5295 12.5067 78.1241 12.496C77.7188 12.4747 77.3081 12.464 76.8921 12.464C76.4761 12.464 76.0548 12.4747 75.6281 12.496C75.2015 12.5067 74.8815 12.5173 74.6681 12.528V12.192C75.0415 12.192 75.3028 12.112 75.4521 11.952C75.6121 11.792 75.6921 11.488 75.6921 11.04V6C75.6921 5.52 75.6175 5.168 75.4681 4.944C75.3295 4.70933 75.0628 4.592 74.6681 4.592V4.256C75.0095 4.288 75.3401 4.304 75.6601 4.304C76.1081 4.304 76.5241 4.288 76.9081 4.256C77.3028 4.21333 77.6655 4.15467 77.9961 4.08ZM83.843 4.032C84.7817 4.032 85.5177 4.30933 86.051 4.864C86.5843 5.41867 86.851 6.32533 86.851 7.584H81.587L81.555 7.28H84.835C84.8457 6.75733 84.8137 6.27733 84.739 5.84C84.6643 5.392 84.547 5.03467 84.387 4.768C84.227 4.50133 84.0137 4.368 83.747 4.368C83.3737 4.368 83.0537 4.60267 82.787 5.072C82.531 5.54133 82.3763 6.32 82.323 7.408L82.371 7.504C82.3603 7.632 82.3497 7.76533 82.339 7.904C82.339 8.04267 82.339 8.18667 82.339 8.336C82.339 9.072 82.4403 9.66933 82.643 10.128C82.8563 10.5867 83.123 10.9227 83.443 11.136C83.763 11.3387 84.0883 11.44 84.419 11.44C84.643 11.44 84.8723 11.408 85.107 11.344C85.3523 11.2693 85.5977 11.1413 85.843 10.96C86.0883 10.768 86.3177 10.5013 86.531 10.16L86.819 10.256C86.691 10.6613 86.4883 11.056 86.211 11.44C85.9337 11.824 85.5817 12.1387 85.155 12.384C84.7283 12.6293 84.2163 12.752 83.619 12.752C82.8937 12.752 82.2537 12.5973 81.699 12.288C81.1443 11.9787 80.707 11.5093 80.387 10.88C80.0777 10.2507 79.923 9.45067 79.923 8.48C79.923 7.488 80.0883 6.66133 80.419 6C80.7603 5.33867 81.2243 4.848 81.811 4.528C82.4083 4.19733 83.0857 4.032 83.843 4.032Z" fill="black"/>
<path d="M93.2856 1.2V1.52C92.923 1.53067 92.6456 1.57333 92.4536 1.648C92.2723 1.712 92.1496 1.84 92.0856 2.032C92.0216 2.21333 91.9896 2.50133 91.9896 2.896V11.024C91.9896 11.3547 92.011 11.6 92.0536 11.76C92.107 11.92 92.203 12.0267 92.3416 12.08C92.491 12.1333 92.7096 12.16 92.9976 12.16H93.7816C94.1443 12.16 94.4856 12.0747 94.8056 11.904C95.1256 11.7333 95.4136 11.4933 95.6696 11.184C95.9256 10.864 96.139 10.4853 96.3096 10.048C96.4803 9.61067 96.6083 9.12533 96.6936 8.592H97.0616C97.0296 8.95467 97.0136 9.424 97.0136 10C97.0136 10.2453 97.019 10.6027 97.0296 11.072C97.0403 11.5413 97.0723 12.0267 97.1256 12.528C96.5816 12.5067 95.9683 12.496 95.2856 12.496C94.603 12.4853 93.995 12.48 93.4616 12.48C93.195 12.48 92.8536 12.48 92.4376 12.48C92.0216 12.48 91.5736 12.4853 91.0936 12.496C90.6136 12.496 90.1283 12.5013 89.6376 12.512C89.147 12.512 88.683 12.5173 88.2456 12.528V12.208C88.587 12.1867 88.843 12.144 89.0136 12.08C89.1843 12.016 89.2963 11.888 89.3496 11.696C89.4136 11.504 89.4456 11.216 89.4456 10.832V2.896C89.4456 2.50133 89.4136 2.21333 89.3496 2.032C89.2963 1.84 89.179 1.712 88.9976 1.648C88.827 1.57333 88.5763 1.53067 88.2456 1.52V1.2C88.5123 1.21067 88.8696 1.22133 89.3176 1.232C89.7763 1.24267 90.2616 1.248 90.7736 1.248C91.243 1.248 91.7016 1.24267 92.1496 1.232C92.6083 1.22133 92.987 1.21067 93.2856 1.2ZM101.995 4.032C102.934 4.032 103.67 4.30933 104.203 4.864C104.736 5.41867 105.003 6.32533 105.003 7.584H99.7389L99.7069 7.28H102.987C102.998 6.75733 102.966 6.27733 102.891 5.84C102.816 5.392 102.699 5.03467 102.539 4.768C102.379 4.50133 102.166 4.368 101.899 4.368C101.526 4.368 101.206 4.60267 100.939 5.072C100.683 5.54133 100.528 6.32 100.475 7.408L100.523 7.504C100.512 7.632 100.502 7.76533 100.491 7.904C100.491 8.04267 100.491 8.18667 100.491 8.336C100.491 9.072 100.592 9.66933 100.795 10.128C101.008 10.5867 101.275 10.9227 101.595 11.136C101.915 11.3387 102.24 11.44 102.571 11.44C102.795 11.44 103.024 11.408 103.259 11.344C103.504 11.2693 103.75 11.1413 103.995 10.96C104.24 10.768 104.47 10.5013 104.683 10.16L104.971 10.256C104.843 10.6613 104.64 11.056 104.363 11.44C104.086 11.824 103.734 12.1387 103.307 12.384C102.88 12.6293 102.368 12.752 101.771 12.752C101.046 12.752 100.406 12.5973 99.8509 12.288C99.2962 11.9787 98.8589 11.5093 98.5389 10.88C98.2295 10.2507 98.0749 9.45067 98.0749 8.48C98.0749 7.488 98.2402 6.66133 98.5709 6C98.9122 5.33867 99.3762 4.848 99.9629 4.528C100.56 4.19733 101.238 4.032 101.995 4.032ZM109.247 4.256V4.592C109.034 4.592 108.874 4.64 108.767 4.736C108.671 4.832 108.676 4.96533 108.783 5.136L112.991 11.392C113.119 11.584 113.252 11.76 113.391 11.92C113.54 12.0693 113.706 12.16 113.887 12.192V12.528C113.727 12.5173 113.482 12.5067 113.151 12.496C112.831 12.4747 112.506 12.464 112.175 12.464C111.791 12.464 111.396 12.4747 110.991 12.496C110.586 12.5067 110.287 12.5173 110.095 12.528V12.192C110.308 12.192 110.463 12.144 110.559 12.048C110.666 11.952 110.666 11.8187 110.559 11.648L106.351 5.392C106.17 5.12533 106.015 4.93333 105.887 4.816C105.77 4.688 105.626 4.61333 105.455 4.592V4.256C105.636 4.26667 105.908 4.28267 106.271 4.304C106.634 4.31467 106.996 4.32 107.359 4.32C107.711 4.32 108.068 4.31467 108.431 4.304C108.794 4.28267 109.066 4.26667 109.247 4.256ZM108.879 8.672C108.879 8.672 108.884 8.704 108.895 8.768C108.916 8.832 108.932 8.896 108.943 8.96C108.964 9.024 108.975 9.056 108.975 9.056L108.335 9.872C108.015 10.288 107.839 10.672 107.807 11.024C107.775 11.3653 107.866 11.6427 108.079 11.856C108.292 12.0587 108.586 12.176 108.959 12.208V12.528C108.756 12.5173 108.506 12.512 108.207 12.512C107.919 12.5013 107.636 12.496 107.359 12.496C107.082 12.4853 106.847 12.48 106.655 12.48C106.42 12.48 106.212 12.4853 106.031 12.496C105.86 12.496 105.695 12.5067 105.535 12.528V12.208C105.78 12.112 106.015 11.9733 106.239 11.792C106.463 11.6 106.714 11.328 106.991 10.976L108.879 8.672ZM113.423 4.256V4.576C113.199 4.64 112.964 4.77867 112.719 4.992C112.474 5.20533 112.218 5.47733 111.951 5.808L110.191 8.016C110.191 8.016 110.18 7.98933 110.159 7.936C110.148 7.872 110.132 7.808 110.111 7.744C110.1 7.68 110.095 7.648 110.095 7.648L110.895 6.576C111.183 6.20267 111.359 5.872 111.423 5.584C111.487 5.296 111.439 5.06133 111.279 4.88C111.13 4.69867 110.863 4.59733 110.479 4.576V4.256C110.788 4.26667 111.103 4.27733 111.423 4.288C111.743 4.29867 112.031 4.304 112.287 4.304C112.532 4.304 112.746 4.29867 112.927 4.288C113.108 4.27733 113.274 4.26667 113.423 4.256Z" fill="#A1045A"/>
</svg>
